<svg width="65" height="64" viewBox="0 0 65 64" fill="none" xmlns="http://www.w3.org/2000/svg">
<circle cx="32.5135" cy="31.7431" r="31.5847" fill="black"/>
<path d="M35.2469 26.2766V40.3645C35.2455 40.5159 35.2824 40.6652 35.354 40.7986C35.4257 40.9319 35.5299 41.0451 35.6569 41.1275L36.9097 41.9589C37.031 42.0399 37.1701 42.0906 37.3151 42.1067C37.4602 42.1228 37.6069 42.1038 37.7431 42.0513C37.8793 41.9989 38.0009 41.9145 38.0976 41.8052C38.1944 41.696 38.2635 41.5651 38.2991 41.4236L39.8024 35.3876" stroke="white" stroke-width="2.36885" stroke-linecap="round" stroke-linejoin="round"/>
<path d="M39.8024 35.3877C41.0106 35.3877 42.1693 34.9077 43.0236 34.0534C43.8779 33.1991 44.3579 32.0404 44.3579 30.8322C44.3579 29.624 43.8779 28.4653 43.0236 27.611C42.1693 26.7566 41.0106 26.2767 39.8024 26.2767H35.2469C35.2469 26.2767 29.0401 26.2767 23.0724 21.277C22.9397 21.1672 22.7785 21.0972 22.6076 21.0753C22.4367 21.0533 22.2631 21.0803 22.1069 21.153C21.9508 21.2258 21.8184 21.3413 21.7252 21.4862C21.632 21.6311 21.5818 21.7995 21.5805 21.9717V39.6926C21.5818 39.8649 21.632 40.0332 21.7252 40.1781C21.8184 40.3231 21.9508 40.4386 22.1069 40.5113C22.2631 40.584 22.4367 40.611 22.6076 40.589C22.7785 40.5671 22.9397 40.4971 23.0724 40.3873C29.0401 35.3877 35.2469 35.3877 35.2469 35.3877H39.8024Z" stroke="white" stroke-width="2.36885" stroke-linecap="round" stroke-linejoin="round"/>
</svg>
